<svg xmlns="http://www.w3.org/2000/svg" xmlns:xlink="http://www.w3.org/1999/xlink" id="Layer_1" x="0px" y="0px" viewBox="0 0 45.66 45.35" style="enable-background:new 0 0 45.66 45.35;" xml:space="preserve"> <style type="text/css"> .st0{opacity:0.64;} .st1{fill:#92AFC4;} </style> <g class="st0"> <g> <polygon class="st1" points="10.85,20.18 25.26,20.18 19.43,14.36 26.49,14.36 34.81,22.67 26.49,30.99 19.43,30.99 25.26,25.17 10.85,25.17 "></polygon> </g> <path class="st1" d="M44.98,22.67c0-12.23-9.92-22.15-22.15-22.15c-12.23,0-22.15,9.92-22.15,22.15c0,12.23,9.92,22.15,22.15,22.15 C35.06,44.82,44.98,34.91,44.98,22.67z M5.43,22.67c0-9.59,7.81-17.4,17.4-17.4c9.59,0,17.4,7.8,17.4,17.4 c0,9.59-7.81,17.4-17.4,17.4C13.23,40.07,5.43,32.27,5.43,22.67z"></path> </g> </svg>