<?xml version="1.0" encoding="UTF-8"?> <svg xmlns="http://www.w3.org/2000/svg" id="Calque_1" data-name="Calque 1" viewBox="0 0 174.93 159.6"><defs><style>.cls-1{fill:#fff;}</style></defs><path class="cls-1" d="M-163.09,348a2.66,2.66,0,0,0-.28,0A2.4,2.4,0,0,1-163.09,348Z" transform="translate(248.02 -220.15)"></path><path class="cls-1" d="M-236.14,379.74A11.89,11.89,0,0,1-248,367.86v-113l.06-.39a2.65,2.65,0,0,1,.92-1.77l37.36-31.79a2.69,2.69,0,0,1,1.67-.62h.56l.16-.09h71.78A11.89,11.89,0,0,1-123.63,232v25.14l-5.38,5.38V232a6.59,6.59,0,0,0-6.5-6.51h-66.18l0,41.78h-20.84v-5.38h15.49V225.7L-242.64,256V367.86a6.59,6.59,0,0,0,6.5,6.51h100.63a6.59,6.59,0,0,0,6.5-6.51V349.63l5.38-1.8v20a11.89,11.89,0,0,1-11.88,11.88Z" transform="translate(248.02 -220.15)"></path><path class="cls-1" d="M-220.61,300.7A2.69,2.69,0,0,1-223.3,298a2.69,2.69,0,0,1,2.69-2.68h58.82l-.69.69a16.83,16.83,0,0,0-3.32,4.68Z" transform="translate(248.02 -220.15)"></path><path class="cls-1" d="M-220.61,345.81a2.69,2.69,0,0,1-2.69-2.68,2.69,2.69,0,0,1,2.69-2.69h40.23a17,17,0,0,0,0,5.37Z" transform="translate(248.02 -220.15)"></path><path class="cls-1" d="M-220.61,323.26a2.7,2.7,0,0,1-2.69-2.69,2.7,2.7,0,0,1,2.69-2.69h48.29l-2,5.38Z" transform="translate(248.02 -220.15)"></path><path class="cls-1" d="M-162.92,348a1,1,0,0,0-.17,0Z" transform="translate(248.02 -220.15)"></path><path class="cls-1" d="M-163.5,345.77a2.7,2.7,0,0,1-1.93-.82,2.68,2.68,0,0,1-.58-2.81l13.11-35a2.73,2.73,0,0,1,.62-1l53-53,26.2,26.18-3.8,3.8-22.39-22.39-45,45,18.67,18.67,34.21-34.2,3.8,3.8-39.34,39.34a2.78,2.78,0,0,1-1,.65l-34.65,11.55A2.7,2.7,0,0,1-163.5,345.77Zm7.82-15.88,5.88,5.8,20.82-6.94-19.1-19.11Z" transform="translate(248.02 -220.15)"></path></svg> 